Coordinates
version=1
nRows=12
nColumns=34
inDegrees=yes

Units are S.I. units (second, meters, Newtons, ...)
If the header above contains a line with 'inDegrees', this indicates whether rotational values are in degrees (yes) or radians (no).

endheader
time	pelvis_tilt	pelvis_list	pelvis_rotation	pelvis_tx	pelvis_ty	pelvis_tz	hip_flexion_r	hip_adduction_r	hip_rotation_r	knee_angle_r	ankle_angle_r	subtalar_angle_r	mtp_angle_r	hip_flexion_l	hip_adduction_l	hip_rotation_l	knee_angle_l	ankle_angle_l	subtalar_angle_l	mtp_angle_l	lumbar_extension	lumbar_bending	lumbar_rotation	arm_flex_r	arm_add_r	arm_rot_r	elbow_flex_r	pro_sup_r	arm_flex_l	arm_add_l	arm_rot_l	elbow_flex_l	pro_sup_l
      7.33333330	     -6.32414678	     -5.31435584	     -2.14001804	     -0.06961090	      0.95231854	      0.11187086	     -1.51147046	     -0.64718225	      0.20111667	      2.50824105	      5.83322952	      0.83898211	      0.00000000	      1.18001844	     -1.69418025	    -22.95230749	      0.00000000	     11.66372247	     21.92263479	      0.00000000	     -3.05783293	      1.85697016	     -5.72837834	      6.40314802	     -5.22003562	     13.56363395	      7.07388176	     64.23513558	      1.63658680	    -24.61975587	     -1.58942252	     29.86366573	     63.78266773
      7.35000000	     -6.02751870	     -5.40215660	     -1.70990911	     -0.06227289	      0.95253487	      0.10949606	     -0.70914537	     -0.52259087	     -0.03806344	      2.36432868	      5.61433641	      0.11445336	      0.00000000	      0.54508999	     -1.64926217	    -22.40842903	      0.00000000	     12.05035433	     21.28615390	      0.00000000	     -2.96068929	      1.95129913	     -5.12817169	      6.07768859	     -5.80775111	     25.56592582	      5.53463145	     62.47013438	      4.30234182	    -25.03966683	      5.51955798	     27.94976809	     61.99563160
      7.36666670	     -5.79712009	     -5.43363933	     -1.43160593	     -0.05423030	      0.95219961	      0.10695269	      0.11678364	     -0.47303167	      0.03342262	      2.14228819	      5.51596440	      0.17206427	      0.00000000	     -0.04530623	     -1.54530239	    -22.55521875	      0.00000000	     12.17730283	     21.21669983	      0.00000000	     -2.89072455	      2.03650491	     -5.62168557	      5.97501886	     -5.97134320	     25.59789848	      5.45346044	     62.41149735	      4.78482868	    -24.88846265	      5.54611168	     28.18462048	     61.97017284
      7.38333330	     -5.59477352	     -5.51463469	     -1.03124621	     -0.04698597	      0.95180637	      0.10387160	      1.03482958	     -0.39340101	     -0.21491259	      2.02269013	      5.39796369	      0.10276051	      0.00000000	     -0.58260927	     -1.48647393	    -22.35170685	      0.00000000	     12.75525418	     21.28803221	      0.00000000	     -2.76607033	      2.21278370	     -5.05327331	      5.78254817	     -6.50482991	     46.48291776	      3.58224362	     42.04478850	      7.11825049	    -25.12210105	     13.89040213	     27.58313679	     52.59470976
      7.40000000	     -5.01638483	     -5.68033570	     -0.53774836	     -0.04089176	      0.95270901	      0.10096929	      1.43776195	     -0.22794472	     -0.24508401	      1.67313359	      5.12092517	     -0.05225222	      0.00000000	     -1.52659906	     -1.51689908	    -21.57435946	      0.00000000	     12.77406596	     20.37229427	      0.00000000	     -3.25959263	      2.47882404	     -5.46802798	      5.57907393	     -6.92557354	     46.24910011	      4.26808408	     40.54705925	      7.58634832	    -24.83345498	     14.12082591	     29.30337588	     52.70839192
      7.41666670	     -4.77471377	     -5.74739839	     -0.30454537	     -0.03500733	      0.95427813	      0.09910542	      2.35030011	     -0.16343567	     -0.12002655	      1.51517514	      4.95344891	      0.02518073	      0.00000000	     -2.14850450	     -1.44895941	    -21.58921185	      0.00000000	     12.91018743	     20.34393871	      0.00000000	     -3.21152104	      2.60102451	     -6.03035689	      5.49844867	     -7.06782344	     46.27652870	      4.22870606	     40.51330796	      8.05753941	    -24.40902424	     14.17755285	     29.57466045	     52.72964570
      7.43333330	     -4.50311104	     -6.04843339	     -0.01350463	     -0.02899092	      0.95632426	      0.09739237	      3.33275583	      0.14379935	     -0.42341596	      1.47518634	      4.17997546	     -0.48933180	      0.00000000	     -2.77478831	     -1.63227992	    -20.41329157	      0.00000000	     13.16417349	     19.08723581	      0.00000000	     -3.59492109	      3.05069225	     -5.77314427	      5.18962220	     -7.72790980	     48.39347620	      4.77172638	     39.38714571	      8.96427523	    -23.87380837	     15.23875346	     31.50506250	     53.46674008
      7.45000000	     -4.24748741	     -6.23021285	      0.07714349	     -0.02135164	      0.95659415	      0.09677592	      4.35953026	      0.37424075	     -0.68091467	      1.58511797	      3.49898100	     -0.47986677	      0.00000000	     -3.45043894	     -1.73496745	    -20.08508986	      0.00000000	     13.46277809	     19.16002563	      0.00000000	     -3.64286134	      3.37502227	     -6.13144561	      5.36450729	     -7.89347183	     48.57761504	      4.76706157	     39.29198524	      9.38347070	    -23.24565658	     15.37655843	     31.84604249	     53.53935738
      7.46666670	     -3.87158194	     -6.45624447	      0.26417411	     -0.01207484	      0.95424348	      0.09653246	      5.13400994	      0.70823720	     -0.99047694	      1.65557892	      2.60018284	     -0.95542747	      0.00000000	     -4.30872185	     -1.90734878	    -19.44221913	      0.00000000	     13.99247040	     18.52312036	      0.00000000	     -3.81478576	      3.60062885	     -6.13449196	      5.46535369	     -8.42263490	     62.15353051	      4.39785243	     29.58739450	     10.05855667	    -22.87029940	     16.19221873	     32.88980183	     57.46416123
      7.48333330	     -3.39879039	     -6.69848109	      0.55437326	     -0.00199564	      0.95080090	      0.09624609	      5.68260449	      1.09600184	     -1.33378724	      1.65030880	      1.58460246	     -1.45527049	      0.00000000	     -5.30411361	     -2.13982637	    -18.29165854	      0.00000000	     14.08691458	     17.12635121	      0.00000000	     -4.14095973	      3.94422965	     -6.56445996	      5.51588283	     -8.69057392	     61.77249624	      4.85728604	     28.15834375	     10.16819547	    -22.46954107	     16.12919061	     34.40504484	     57.59749468
      7.50000000	     -3.13272774	     -6.90235561	      0.63678811	      0.00845978	      0.95059896	      0.09628480	      6.41691221	      1.49608611	     -1.65161111	      1.77445239	      0.98352711	     -1.52616072	      0.00000000	     -6.20212642	     -2.37123068	    -18.02231759	      0.00000000	     14.55979989	     17.06531164	      0.00000000	     -3.95649929	      4.25328467	     -6.81081393	      5.42935894	     -8.81881825	     61.82423883	      4.84614089	     28.04949719	     10.27866863	    -21.77228149	     16.25644378	     34.77414222	     57.65105022
      7.51666670	     -2.57639901	     -7.16359705	      0.97845462	      0.01789847	      0.95414376	      0.09600164	      6.45007457	      2.00240557	     -1.69972344	      1.27142573	     -0.09514478	     -2.00183498	      0.00000000	     -7.40177357	     -2.71410496	    -16.92643408	      0.00000000	     14.72570243	     15.79030020	      0.00000000	     -4.22481061	      4.50112348	     -7.03042467	      5.32593120	     -9.02042312	     62.63073250	      5.16490627	     27.21650484	     10.42678209	    -21.41359395	     16.67553248	     36.27727593	     58.21474483
